Other Men-Wake Up Swimming
FLAC
 My own rip.Only rip of this on pirate bay.ENJOY.

Exact Audio Copy V1.0 beta 3 from 29. August 2011

EAC extraction logfile from 2. January 2012, 3:01

The Other Men / Wake Up Swimming

Used drive  : TSSTcorpCD/DVDW TS-H652D   Adapter: 5  ID: 0

Read mode               : Secure
Utilize accurate stream : Yes
Defeat audio cache      : No
Make use of C2 pointers : Yes

Read offset correction                      : 6
Overread into Lead-In and Lead-Out          : No
Fill up missing offset samples with silence : Yes
Delete leading and trailing silent blocks   : No
Null samples used in CRC calculations       : Yes
Used interface                              : Native Win32 interface for Win NT & 2000
Gap handling                                : Not detected, thus appended to previous track

Used output format              : User Defined Encoder
Selected bitrate                : 768 kBit/s
Quality                         : High
Add ID3 tag                     : No
Command line compressor         : C:\Program Files\Exact Audio Copy\FLAC\FLAC.EXE
Additional command line options : -6 -V -T "ARTIST=%artist%" -T "TITLE=%title%" -T "ALBUM=%albumtitle%" -T "DATE=%year%" -T "TRACKNUMBER=%tracknr%" -T "GENRE=%genre%" -T "COMMENT=%comment%" -T "BAND=%albuminterpret%" -T "ALBUMARTIST=%albuminterpret%" -T "COMPOSER=%composer%" %haslyrics%--tag-from-file=LYRICS="%lyricsfile%"%haslyrics% -T "DISCNUMBER=%cdnumber%" -T "TOTALDISCS=%totalcds%" -T "TOTALTRACKS=%numtracks%" %hascover%--picture="%coverfile%"%hascover% %source% -o %dest%


TOC of the extracted CD

     Track |   Start  |  Length  | Start sector | End sector 
    ---------------------------------------------------------
        1  |  0:00.00 |  3:21.02 |         0    |    15076   
        2  |  3:21.02 |  3:44.49 |     15077    |    31925   
        3  |  7:05.51 |  2:58.64 |     31926    |    45339   
        4  | 10:04.40 |  3:12.28 |     45340    |    59767   
        5  | 13:16.68 |  6:03.74 |     59768    |    87066   
        6  | 19:20.67 |  1:36.17 |     87067    |    94283   
        7  | 20:57.09 |  3:10.54 |     94284    |   108587   
        8  | 24:07.63 |  3:53.61 |    108588    |   126123   
        9  | 28:01.49 |  3:16.22 |    126124    |   140845   
       10  | 31:17.71 |  3:12.33 |    140846    |   155278   
       11  | 34:30.29 |  2:18.57 |    155279    |   165685   


Track  1

     Filename C:\Users\David\Downloads\01 1 Other People.wav

     Peak level 99.5 %
     Extraction speed 5.3 X
     Track quality 100.0 %
     Copy CRC 349F914A
     Accurately ripped (confidence 3)  [2D460345]  (AR v1)
     Copy OK

Track  2

     Filename C:\Users\David\Downloads\02 2 Strapped.wav

     Peak level 99.5 %
     Extraction speed 5.9 X
     Track quality 99.9 %
     Copy CRC BF241B5F
     Accurately ripped (confidence 3)  [BB99D2E0]  (AR v1)
     Copy OK

Track  3

     Filename C:\Users\David\Downloads\03 3 Kind of off to the Side a Bit.wav

     Peak level 99.5 %
     Extraction speed 6.6 X
     Track quality 100.0 %
     Copy CRC E9FB27B3
     Accurately ripped (confidence 3)  [02C0613C]  (AR v1)
     Copy OK

Track  4

     Filename C:\Users\David\Downloads\04 4 Self-Fulfilling Boss Coffee Vending Machine Prophecy.wav

     Peak level 99.5 %
     Extraction speed 7.0 X
     Track quality 100.0 %
     Copy CRC 3FBB3B5D
     Accurately ripped (confidence 3)  [0098EAD0]  (AR v1)
     Copy OK

Track  5

     Filename C:\Users\David\Downloads\05 5 In This Wind.wav

     Peak level 99.5 %
     Extraction speed 7.7 X
     Track quality 100.0 %
     Copy CRC C2EA416C
     Accurately ripped (confidence 3)  [F2B08CD0]  (AR v1)
     Copy OK

Track  6

     Filename C:\Users\David\Downloads\06 6 Uhhhh....wav

     Peak level 99.5 %
     Extraction speed 6.4 X
     Track quality 99.7 %
     Copy CRC BE013C24
     Accurately ripped (confidence 2)  [89352C79]  (AR v1)
     Copy OK

Track  7

     Filename C:\Users\David\Downloads\07 7 Anaglyphic.wav

     Peak level 99.5 %
     Extraction speed 8.2 X
     Track quality 100.0 %
     Copy CRC DF5E47AE
     Accurately ripped (confidence 3)  [0680C6BC]  (AR v1)
     Copy OK

Track  8

     Filename C:\Users\David\Downloads\08 8 Indiscriminate Proposals of Little Mercy.wav

     Peak level 99.5 %
     Extraction speed 8.5 X
     Track quality 100.0 %
     Copy CRC 72DAA2AB
     Accurately ripped (confidence 3)  [9CD532EC]  (AR v1)
     Copy OK

Track  9

     Filename C:\Users\David\Downloads\09 9 Total Nutcase.wav

     Peak level 99.5 %
     Extraction speed 8.5 X
     Track quality 99.8 %
     Copy CRC 650D3C47
     Accurately ripped (confidence 3)  [99629F8F]  (AR v1)
     Copy OK

Track 10

     Filename C:\Users\David\Downloads\10 10 False Positives.wav

     Peak level 99.5 %
     Extraction speed 8.8 X
     Track quality 99.8 %
     Copy CRC C7CDDA90
     Accurately ripped (confidence 3)  [77F4A320]  (AR v1)
     Copy OK

Track 11

     Filename C:\Users\David\Downloads\11 11 Bullet Train to Jimbo's.wav

     Peak level 99.5 %
     Extraction speed 9.1 X
     Track quality 100.0 %
     Copy CRC 98EBB193
     Accurately ripped (confidence 3)  [C5195836]  (AR v1)
     Copy OK


All tracks accurately ripped

No errors occurred

End of status report
///////////////////////////////////////////////////////////////////////////////
PLEASE SEED////////////////////////////////////////////////////////////////////
//////////////////////////////im_me////////////////////////////////////////////
///////////////////////////////////////////and_thats_all///////////////////////
/////////ill_ever_be///////////////////////////////////////////////////////////